<?xml version="1.0" encoding="UTF-8"?>
<svg id="Layer_1" xmlns="http://www.w3.org/2000/svg" version="1.1" viewBox="0 0 24 24">
  <!-- Generator: Adobe Illustrator 29.8.7, SVG Export Plug-In . SVG Version: 2.1.1 Build 1)  -->
  <defs>
    <style>
      .st0 {
        fill: #1a6b8a;
      }
    </style>
  </defs>
  <path class="st0" d="M5,3.5c0-.28.22-.5.5-.5h9c.27,0,.5.22.5.5v.5h3v-.5c0-1.93-1.57-3.5-3.5-3.5H5.5c-1.93,0-3.5,1.57-3.5,3.5v17.5c0,1.66,1.34,3,3,3h10c1.66,0,3-1.34,3-3v-3H5V3.5ZM8,20h4v2h-4v-2ZM23,10.41v3.59h-2c0-1-.5-2-2-2h-1.45l.83,2c.19.44.16.94-.11,1.34s-.7.64-1.18.64h-.72l-2.2-5.19c-.11-.24-.17-.51-.17-.8v-2c0-1.11.9-2,2-2h3c1.5,0,2-1,2-2h2v3.59c.58.21,1,.76,1,1.41s-.42,1.2-1,1.41Z"/>
</svg>