<?xml version="1.0" encoding="UTF-8"?>
<svg id="Layer_1" xmlns="http://www.w3.org/2000/svg" version="1.1" viewBox="0 0 512 512">
  <!-- Generator: Adobe Illustrator 29.8.7, SVG Export Plug-In . SVG Version: 2.1.1 Build 1)  -->
  <defs>
    <style>
      .st0 {
        fill: #e5b548;
      }
    </style>
  </defs>
  <path class="st0" d="M352,0c-91.22,0-160,41.28-160,96,0,4.27.43,8.47,1.24,12.57-10.67-1.26-21.78-1.9-33.24-1.9-91.22,0-160,41.28-160,96v213.33c0,54.72,68.78,96,160,96s160-41.28,160-96v-12.48c10.47,1.19,21.21,1.81,32,1.81,91.22,0,160-41.28,160-96V96C512,41.28,443.22,0,352,0ZM448,202.67c0,7.98-34.05,32-96,32-10.94,0-21.72-.79-32-2.33v-29.67c0-4.27-.43-8.47-1.24-12.57,10.67,1.26,21.78,1.9,33.24,1.9,36.61,0,69.61-6.66,96-18.15v28.82ZM64,280.51c26.39,11.5,59.39,18.15,96,18.15s69.61-6.66,96-18.15v28.82c0,7.98-34.05,32-96,32s-96-24.02-96-32v-28.82ZM352,64c61.95,0,96,24.02,96,32s-34.05,32-96,32-96-24.02-96-32,34.05-32,96-32ZM160,170.67c61.95,0,96,24.02,96,32s-34.05,32-96,32-96-24.02-96-32,34.05-32,96-32ZM160,448c-61.95,0-96-24.02-96-32v-28.82c26.39,11.5,59.39,18.15,96,18.15s69.61-6.66,96-18.15v28.82c0,7.98-34.05,32-96,32ZM352,341.33c-10.94,0-21.72-.79-32-2.33v-42.15c10.47,1.19,21.21,1.81,32,1.81,36.61,0,69.61-6.66,96-18.15v28.82c0,7.98-34.05,32-96,32Z"/>
</svg>