<?xml version="1.0" encoding="UTF-8"?>
<svg id="Layer_1" xmlns="http://www.w3.org/2000/svg" version="1.1" viewBox="0 0 512 512">
  <!-- Generator: Adobe Illustrator 29.8.7, SVG Export Plug-In . SVG Version: 2.1.1 Build 1)  -->
  <defs>
    <style>
      .st0 {
        fill: #459ae9;
      }
    </style>
  </defs>
  <path class="st0" d="M496.38,88.45L417.3,9.37l-45.27,45.27,33.3,33.28v50.75c0,25.35,17.83,47.2,42.67,52.27v203.73c0,5.89-4.78,10.67-10.67,10.67s-10.67-4.78-10.67-10.67v-21.33c0-41.24-33.43-74.67-74.67-74.67h-10.67V74.67c0-41.24-33.43-74.67-74.67-74.67H74.67C33.43,0,0,33.43,0,74.67v437.33h341.33v-149.33h10.67c5.89,0,10.67,4.78,10.67,10.67v21.33c0,41.24,33.43,74.67,74.67,74.67s74.67-33.43,74.67-74.67V126.17c-.04-14.14-5.65-27.69-15.62-37.72ZM74.67,64h192c5.89,0,10.67,4.78,10.67,10.67v117.33H64v-117.33c0-5.89,4.78-10.67,10.67-10.67ZM64,448v-192h213.33v192H64Z"/>
</svg>