<?xml version="1.0" encoding="UTF-8"?>
<svg id="Bold" xmlns="http://www.w3.org/2000/svg" version="1.1" viewBox="0 0 512 512">
  <!-- Generator: Adobe Illustrator 29.8.7, SVG Export Plug-In . SVG Version: 2.1.1 Build 1)  -->
  <defs>
    <style>
      .st0 {
        fill: #e84b4b;
      }
    </style>
  </defs>
  <path class="st0" d="M146.18,500.01c-16.28-.07-32.12-5.3-45.25-14.93-27.55-19.38-39.09-54.55-28.39-86.49l24.96-77.21-65.71-48.04C-2.7,248.15-10.23,199.77,14.97,165.28c14.57-19.94,37.78-31.72,62.47-31.71h80.43l24.43-76.16c13.08-40.68,56.66-63.06,97.34-49.99,23.74,7.63,42.35,26.24,49.99,49.99h0l24.51,76.16h80.43c42.71,0,77.34,34.61,77.34,77.32,0,24.69-11.78,47.89-31.71,62.45l-65.69,48.04,24.96,77.21c13.14,40.65-9.17,84.26-49.82,97.39-23.68,7.65-49.6,3.44-69.64-11.31l-64-47.06-64,47.08c-13.24,9.88-29.3,15.25-45.82,15.32ZM77.44,197.57c-7.38,0-13.36,5.98-13.36,13.35,0,4.26,2.03,8.26,5.46,10.77l84.39,61.67c11.15,8.15,15.81,22.53,11.56,35.67l-32,99.2c-2.31,7,1.49,14.56,8.5,16.87,4.11,1.36,8.63.64,12.11-1.93l82.97-61.03c11.28-8.3,26.65-8.3,37.93,0l82.97,61.01c5.9,4.4,14.26,3.18,18.66-2.72,2.61-3.5,3.34-8.07,1.95-12.21l-32-99.2c-4.25-13.14.42-27.52,11.56-35.67l84.37-61.67c5.95-4.36,7.24-12.72,2.88-18.67-2.51-3.43-6.5-5.46-10.75-5.46h-103.98c-13.91,0-26.22-8.99-30.46-22.23l-31.4-98.37c-2.26-7.02-9.78-10.89-16.8-8.63-4.1,1.32-7.31,4.53-8.63,8.63l-31.64,98.39c-4.24,13.22-16.52,22.2-30.4,22.23h-103.89Z"/>
</svg>