<?xml version="1.0" encoding="UTF-8"?>
<svg id="Outline" xmlns="http://www.w3.org/2000/svg" version="1.1" viewBox="0 0 469.45 512.3">
  <!-- Generator: Adobe Illustrator 30.5.1, SVG Export Plug-In . SVG Version: 2.1.4 Build 3)  -->
  <defs>
    <style>
      .st0 {
        fill: #fff;
      }
    </style>
  </defs>
  <path class="st0" d="M298.69,82.11h0c.14,8.67,5.41,16.43,13.42,19.75,71.67,31.54,117.01,103.43,114.58,181.7-1.72,106.04-89.08,190.61-195.11,188.89-106.04-1.72-190.61-89.08-188.89-195.11h0c.1-76.01,45.03-144.8,114.58-175.45,8.01-3.34,13.28-11.12,13.42-19.8h0c.02-11.78-9.52-21.35-21.3-21.37-2.75,0-5.47.52-8.01,1.55C22.47,113.82-32.13,252.01,19.42,370.92c51.55,118.91,189.74,173.51,308.65,121.96s173.51-189.74,121.96-308.65c-23.7-54.66-67.3-98.26-121.96-121.96-10.91-4.44-23.36.8-27.8,11.72-1.05,2.58-1.58,5.34-1.57,8.12h-.01Z"/>
  <path class="st0" d="M234.69,0h0c11.78,0,21.33,9.55,21.33,21.33v128c0,11.78-9.55,21.33-21.33,21.33h0c-11.78,0-21.33-9.55-21.33-21.33V21.33c0-11.78,9.55-21.33,21.33-21.33h0Z"/>
</svg>