<svg width="123" height="74" viewBox="0 0 123 74" fill="none" xmlns="http://www.w3.org/2000/svg">
<path d="M100.607 43.598C100.841 43.5979 100.841 43.5979 101.079 43.5978C101.501 43.598 101.922 43.5999 102.343 43.6026C102.786 43.605 103.228 43.6052 103.671 43.6056C104.506 43.6068 105.341 43.6099 106.177 43.6137C107.129 43.618 108.081 43.62 109.033 43.6219C110.989 43.6259 112.945 43.6328 114.901 43.641C114.901 45.4778 114.901 47.3145 114.901 49.2068C114.252 49.2106 114.252 49.2106 113.589 49.2144C112.156 49.2229 110.722 49.2327 109.288 49.2432C108.419 49.2495 107.55 49.2554 106.681 49.2602C105.841 49.2649 105.002 49.2708 104.163 49.2774C103.843 49.2798 103.524 49.2817 103.204 49.2832C102.755 49.2853 102.306 49.289 101.857 49.293C101.661 49.2934 101.661 49.2934 101.461 49.2938C99.9949 49.3105 98.5131 49.4396 97.3399 50.4036C96.7087 51.0619 96.5426 51.7351 96.1728 52.6222C101.393 52.664 106.613 52.7057 111.991 52.7487C111.991 54.5437 111.991 56.3387 111.991 58.188C106.646 58.188 101.3 58.188 95.7932 58.188C95.7932 59.3151 95.7932 60.4422 95.7932 61.6034C102.099 61.6034 108.405 61.6034 114.901 61.6034C114.901 63.4819 114.901 65.3604 114.901 67.2957C107.05 67.2957 99.1998 67.2957 91.1111 67.2957C91.1059 65.2164 91.1007 63.137 91.0953 60.9947C91.093 60.3429 91.0907 59.6912 91.0883 59.0197C91.0872 58.2116 91.0872 58.2116 91.087 57.8309C91.0866 57.5702 91.0857 57.3095 91.0844 57.0488C91.0745 54.9561 91.0657 52.797 91.6331 50.7643C91.6597 50.6667 91.6863 50.569 91.7137 50.4684C92.1507 48.9618 92.8675 47.61 93.8951 46.4239C93.974 46.3199 94.053 46.2159 94.1343 46.1087C95.7273 44.2155 98.2407 43.5754 100.607 43.598Z" fill="black"/>
<path d="M73.6651 43.5979C73.9006 43.5979 73.9006 43.5979 74.1408 43.5978C74.5656 43.598 74.9903 43.5999 75.4151 43.6025C75.8611 43.6049 76.3071 43.6051 76.7532 43.6056C77.5952 43.6068 78.4373 43.6099 79.2793 43.6137C80.239 43.618 81.1988 43.62 82.1585 43.6219C84.1304 43.6259 86.1022 43.6328 88.0741 43.641C88.0741 45.4777 88.0741 47.3145 88.0741 49.2068C87.6124 49.2093 87.1507 49.2118 86.675 49.2144C85.1481 49.2229 83.6212 49.2327 82.0944 49.2432C81.1688 49.2495 80.2432 49.2554 79.3177 49.2602C78.5106 49.2644 77.7035 49.2694 76.8964 49.2755C76.4693 49.2787 76.0423 49.2814 75.6153 49.2832C75.1376 49.2853 74.66 49.289 74.1823 49.293C74.042 49.2933 73.9017 49.2935 73.7572 49.2938C72.6698 49.3055 71.586 49.3407 70.7377 50.0923C70.1256 50.9134 69.9787 51.7354 69.7253 52.7487C75.8222 52.7487 81.919 52.7487 88.2006 52.7487C88.2006 60.1199 88.2006 60.1199 87.6628 61.8327C87.6353 61.922 87.6077 62.0113 87.5794 62.1033C87.0183 63.8457 85.9803 65.3737 84.3381 66.2581C84.183 66.3334 84.183 66.3334 84.0247 66.4103C83.9291 66.4579 83.8335 66.5055 83.735 66.5545C81.6612 67.4836 79.3771 67.3463 77.1597 67.3328C76.8165 67.3319 76.4732 67.3315 76.13 67.3312C75.3243 67.33 74.5185 67.3269 73.7128 67.3231C72.7941 67.3188 71.8754 67.3167 70.9566 67.3148C69.0698 67.3109 67.1831 67.3039 65.2963 67.2957C65.2963 65.4173 65.2963 63.5388 65.2963 61.6034C66.0119 61.6016 66.0119 61.6016 66.7419 61.5998C68.3193 61.5956 69.8966 61.5886 71.474 61.5802C72.4302 61.5751 73.3864 61.571 74.3426 61.5691C75.1764 61.5675 76.0102 61.5641 76.844 61.5586C77.2852 61.5557 77.7263 61.5537 78.1675 61.5538C78.6609 61.554 79.1543 61.5501 79.6478 61.546C79.8653 61.5469 79.8653 61.5469 80.0872 61.5479C81.0293 61.5357 81.8707 61.4213 82.599 60.7768C83.2785 59.9852 83.3389 59.2593 83.6451 58.188C77.59 58.188 71.5349 58.188 65.2963 58.188C65.2963 48.1899 65.2963 48.1899 67.7273 45.6225C69.3573 44.0352 71.4508 43.577 73.6651 43.5979Z" fill="black"/>
<path d="M38.4691 43.641C40.0142 43.641 41.5593 43.641 43.1512 43.641C43.1512 46.6466 43.1512 49.6521 43.1512 52.7487C47.87 52.7487 52.5888 52.7487 57.4506 52.7487C57.4506 49.7432 57.4506 46.7376 57.4506 43.641C58.954 43.641 60.4573 43.641 62.0062 43.641C62.0062 51.4471 62.0062 59.2531 62.0062 67.2957C60.5028 67.2957 58.9995 67.2957 57.4506 67.2957C57.4506 64.2902 57.4506 61.2846 57.4506 58.188C52.7318 58.188 48.013 58.188 43.1512 58.188C43.1512 61.1936 43.1512 64.1991 43.1512 67.2957C41.6062 67.2957 40.0611 67.2957 38.4691 67.2957C38.4691 59.4897 38.4691 51.6836 38.4691 43.641Z" fill="black"/>
<path d="M73.6651 43.5979C73.9006 43.5979 73.9006 43.5979 74.1408 43.5978C74.5656 43.598 74.9903 43.5999 75.4151 43.6025C75.8611 43.6049 76.3071 43.6051 76.7532 43.6056C77.5952 43.6068 78.4373 43.6099 79.2793 43.6137C80.239 43.618 81.1988 43.62 82.1585 43.6219C84.1304 43.6259 86.1022 43.6328 88.0741 43.641C88.0741 45.4777 88.0741 47.3145 88.0741 49.2068C87.6124 49.2093 87.1507 49.2118 86.675 49.2144C85.1481 49.2229 83.6212 49.2327 82.0944 49.2432C81.1688 49.2495 80.2432 49.2554 79.3177 49.2602C78.5106 49.2644 77.7035 49.2694 76.8964 49.2755C76.4694 49.2787 76.0423 49.2814 75.6153 49.2832C75.1376 49.2853 74.66 49.289 74.1823 49.293C74.042 49.2933 73.9018 49.2935 73.7572 49.2938C72.6698 49.3055 71.586 49.3407 70.7377 50.0923C70.1256 50.9134 69.9787 51.7354 69.7253 52.7487C72.3979 52.7487 75.0705 52.7487 77.8241 52.7487C76.9701 53.7446 76.9701 53.7446 76.5857 54.1255C76.4572 54.2533 76.4572 54.2533 76.3261 54.3837C76.2363 54.4725 76.1465 54.5612 76.054 54.6526C75.9128 54.793 75.9128 54.793 75.7687 54.9362C75.4708 55.2325 75.1725 55.5284 74.874 55.8241C74.4787 56.2159 74.0838 56.6082 73.6892 57.0006C73.5981 57.0906 73.507 57.1806 73.4132 57.2734C73.3295 57.3566 73.2458 57.4398 73.1596 57.5256C73.0858 57.5987 73.0119 57.6719 72.9358 57.7473C72.7494 57.9316 72.7494 57.9316 72.6358 58.188C70.2138 58.188 67.7917 58.188 65.2963 58.188C65.2859 57.0896 65.2754 55.9913 65.2647 54.8596C65.2601 54.5183 65.2554 54.1769 65.2507 53.8253C65.2268 50.7808 65.5486 47.9235 67.7273 45.6225C69.3573 44.0352 71.4508 43.577 73.6651 43.5979Z" fill="#DC9034"/>
<path d="M82.2185 27.0701C83.6509 28.2759 84.7677 30.0007 85.037 31.8769C85.1813 34.3042 84.8654 36.3646 83.2021 38.257C83.0146 38.4517 82.825 38.6443 82.6327 38.8342C82.5643 38.9053 82.496 38.9764 82.4256 39.0496C81.0299 40.385 79.0107 40.9263 77.1278 40.9112C75.1004 40.8407 73.2412 40.0309 71.7772 38.6291C70.2655 37.0061 69.498 34.9368 69.5548 32.7219C69.7501 30.6553 70.5361 29.0476 72.0031 27.5761C72.0716 27.5046 72.1401 27.4332 72.2107 27.3596C74.8982 24.7952 79.3641 24.9771 82.2185 27.0701ZM73.142 29.7265C72.1457 31.0397 71.868 32.3999 72.0031 34.0273C72.1655 34.9851 72.607 35.7573 73.142 36.5573C73.2516 36.7255 73.2516 36.7255 73.3634 36.8972C74.4694 38.0335 75.7903 38.6234 77.3653 38.6523C78.8675 38.6348 80.0537 38.1201 81.1844 37.1299C82.2574 36.0213 82.7919 34.7177 82.9253 33.1972C82.9039 31.9522 82.3738 30.8167 81.6204 29.853C81.5647 29.7754 81.5091 29.6977 81.4518 29.6178C80.5411 28.432 79.2679 27.9165 77.8241 27.7026C75.9885 27.5094 74.3544 28.4333 73.142 29.7265Z" fill="#008CD1"/>
<path d="M62.8168 26.9347C64.5076 28.2838 65.6185 29.9662 65.929 32.1299C65.9418 32.3951 65.949 32.6605 65.9514 32.926C65.9538 33.1584 65.9538 33.1584 65.9563 33.3954C65.9573 33.5611 65.9582 33.7267 65.9592 33.8974C65.9597 33.9824 65.9602 34.0675 65.9607 34.1551C65.9633 34.6045 65.9652 35.0538 65.9664 35.5032C65.9678 35.9663 65.9721 36.4293 65.9771 36.8923C65.9804 37.2497 65.9815 37.607 65.982 37.9644C65.9829 38.2178 65.9862 38.4713 65.9896 38.7247C65.9892 38.8792 65.9889 39.0337 65.9885 39.193C65.9892 39.3286 65.99 39.4642 65.9907 39.604C65.9139 40.0629 65.7424 40.2732 65.4228 40.6051C65.0305 40.8012 64.7169 40.7683 64.2839 40.7316C63.855 40.4613 63.6859 40.3297 63.5247 39.8462C63.513 39.6007 63.5088 39.3549 63.5087 39.1092C63.5083 38.9575 63.5078 38.8059 63.5073 38.6496C63.5071 38.4852 63.507 38.3207 63.5069 38.1513C63.5054 37.892 63.5034 37.6327 63.5015 37.3734C63.4967 36.7347 63.4927 36.0961 63.493 35.4574C63.4931 35.0124 63.4901 34.5675 63.4852 34.1225C63.4832 33.8736 63.4845 33.6246 63.4859 33.3757C63.4648 31.8005 63.0554 30.5043 61.936 29.3668C60.837 28.3981 59.472 27.8579 57.9919 27.9195C56.6897 28.0825 55.3127 28.6082 54.4136 29.6C53.2504 31.1204 53.0934 32.5802 53.0728 34.4306C53.069 34.7593 53.0628 35.0879 53.0558 35.4165C53.0392 36.2173 53.0255 37.0182 53.015 37.8191C53.0093 38.2261 53.0001 38.6329 52.99 39.0397C52.9896 39.2111 52.9896 39.2111 52.9892 39.386C52.9733 39.936 52.9446 40.1608 52.6004 40.6111C52.2623 40.8581 52.2623 40.8581 51.8194 40.9372C51.2575 40.8369 51.0995 40.665 50.7438 40.2256C50.6643 39.8389 50.6643 39.8389 50.664 39.4019C50.6624 39.2376 50.6608 39.0733 50.6591 38.904C50.6607 38.7252 50.6624 38.5465 50.6642 38.3677C50.6641 38.1826 50.6638 37.9974 50.6633 37.8122C50.6629 37.4239 50.6648 37.0356 50.6683 36.6473C50.6726 36.1541 50.6718 35.661 50.6695 35.1678C50.6681 34.7849 50.6693 34.402 50.6712 34.0191C50.6718 33.8376 50.6718 33.6561 50.671 33.4745C50.6647 31.1893 51.3455 29.3037 52.9336 27.6403C55.5543 25.2028 59.8769 24.8899 62.8168 26.9347Z" fill="#008CD1"/>
<path d="M43.2778 27.0701C44.8368 28.2414 45.8651 29.9461 46.1883 31.8769C46.2292 32.5017 46.2332 33.1263 46.2352 33.7521C46.2364 33.9335 46.2375 34.1149 46.2387 34.2963C46.2408 34.6747 46.2418 35.0531 46.2421 35.4314C46.2428 35.9155 46.2476 36.3995 46.2533 36.8835C46.2571 37.2574 46.258 37.6312 46.2582 38.0051C46.2587 38.1835 46.2603 38.362 46.2629 38.5405C46.2663 38.7899 46.2653 39.0393 46.2641 39.2886C46.2648 39.4303 46.2654 39.5719 46.2661 39.7178C46.1628 40.2242 45.9552 40.4142 45.5556 40.7316C45.0492 40.804 44.7675 40.7784 44.3059 40.5577C44.037 40.3522 44.037 40.3522 43.9105 40.0992C43.8973 39.8695 43.892 39.6394 43.8905 39.4094C43.8892 39.2649 43.8879 39.1204 43.8866 38.9715C43.8857 38.8144 43.8848 38.6572 43.8838 38.4952C43.8812 38.2481 43.8785 38.0009 43.8757 37.7537C43.869 37.1442 43.8635 36.5347 43.8597 35.9252C43.8575 35.5839 43.8544 35.2427 43.8502 34.9015C43.8463 34.5808 43.8439 34.26 43.843 33.9393C43.8189 32.2298 43.4786 30.7879 42.3208 29.4893C41.775 29.0137 41.2966 28.6479 40.6204 28.3746C40.4925 28.3219 40.3646 28.2692 40.2328 28.215C38.8991 27.7381 37.4984 27.8992 36.224 28.4981C34.9509 29.2215 34.1792 30.1186 33.6605 31.4975C33.4207 32.417 33.3671 33.3105 33.3595 34.2571C33.3573 34.3958 33.3552 34.5345 33.3529 34.6774C33.3463 35.1169 33.3411 35.5564 33.3362 35.996C33.3306 36.4359 33.3247 36.8759 33.3182 37.3158C33.3142 37.5884 33.3107 37.861 33.308 38.1336C33.2798 40.2009 33.2798 40.2009 32.8854 40.6763C32.4202 40.9088 32.1498 40.9407 31.6358 40.8581C31.2389 40.5416 31.0292 40.351 30.9244 39.8477C30.9247 39.7076 30.925 39.5675 30.9252 39.4232C30.9241 39.2635 30.9229 39.1038 30.9217 38.9393C30.9236 38.7658 30.9257 38.5922 30.9279 38.4186C30.9282 38.2388 30.9282 38.059 30.9279 37.8792C30.9281 37.5023 30.9305 37.1254 30.9345 36.7484C30.9395 36.2694 30.9401 35.7905 30.9391 35.3115C30.9387 34.9397 30.9403 34.568 30.9424 34.1963C30.9433 34.02 30.9437 33.8437 30.9436 33.6673C30.9457 31.3864 31.5303 29.3697 33.1543 27.7026C36.0069 25.1742 40.1392 24.8909 43.2778 27.0701Z" fill="#008CD1"/>
<path d="M90.2253 25.8051C90.8283 26.3479 90.8181 26.91 90.858 27.6709C91.0902 30.7312 92.0479 33.618 94.3286 35.7825C96.0752 37.2238 98.1149 38.0952 100.349 38.4547C100.348 38.3055 100.347 38.1564 100.345 38.0027C100.335 36.5975 100.328 35.1922 100.323 33.787C100.32 33.0645 100.316 32.342 100.311 31.6196C100.305 30.9224 100.302 30.2253 100.301 29.5281C100.3 29.2621 100.298 28.996 100.295 28.73C100.292 28.3575 100.291 27.9851 100.291 27.6125C100.289 27.5024 100.288 27.3923 100.286 27.2789C100.289 26.7693 100.31 26.5014 100.579 26.0558C100.964 25.706 101.225 25.6786 101.741 25.6786C102.165 25.8227 102.418 25.9162 102.646 26.31C102.801 26.8605 102.789 27.3885 102.788 27.958C102.788 28.0852 102.789 28.2124 102.79 28.3434C102.792 28.7634 102.791 29.1834 102.791 29.6034C102.792 29.8957 102.792 30.1879 102.793 30.4801C102.794 31.0925 102.794 31.7049 102.793 32.3173C102.792 33.1018 102.794 33.8863 102.797 34.6708C102.799 35.2742 102.799 35.8777 102.799 36.4812C102.799 36.7704 102.8 37.0596 102.801 37.3489C102.803 37.7534 102.802 38.1578 102.8 38.5624C102.801 38.6817 102.802 38.801 102.803 38.9239C102.798 39.5775 102.745 40.042 102.373 40.6051C100.977 41.3031 98.5879 40.5867 97.1832 40.1455C95.3708 39.5408 93.8677 38.5181 92.5031 37.1897C92.4135 37.1066 92.324 37.0234 92.2317 36.9377C89.7686 34.5932 88.5118 31.0332 88.4129 27.6883C88.4107 27.586 88.4085 27.4838 88.4062 27.3784C88.4029 27.2804 88.3996 27.1824 88.3962 27.0814C88.3949 26.6299 88.4125 26.3664 88.686 25.9993C89.2178 25.6222 89.6068 25.6533 90.2253 25.8051Z" fill="#008CD1"/>
<path d="M114.901 61.6034C114.901 63.4819 114.901 65.3603 114.901 67.2957C109.765 67.2957 104.628 67.2957 99.3364 67.2957C99.587 67.0035 99.8375 66.7113 100.096 66.4103C100.223 66.2325 100.347 66.0523 100.465 65.8685C104.164 60.3398 108.9 61.1008 114.901 61.6034Z" fill="#A5C35A"/>
<path d="M88.0741 43.641C88.0741 45.4777 88.0741 47.3145 88.0741 49.2068C83.063 49.2068 78.0518 49.2068 72.8889 49.2068C73.1394 48.9146 73.39 48.6224 73.6481 48.3214C73.7727 48.1475 73.894 47.9712 74.0095 47.7912C77.604 42.4159 82.2566 43.1543 88.0741 43.641Z" fill="black"/>
<path d="M38.4691 43.641C40.0142 43.641 41.5593 43.641 43.1512 43.641C43.1512 46.6466 43.1512 49.6521 43.1512 52.7487C43.7776 52.7487 44.404 52.7487 45.0494 52.7487C44.4012 53.5322 43.6943 54.2483 42.9748 54.9658C42.8485 55.0922 42.7222 55.2185 42.5959 55.3449C42.3331 55.6078 42.0701 55.8705 41.8069 56.133C41.4689 56.4702 41.1314 56.8079 40.7941 57.1458C40.5344 57.4059 40.2743 57.6657 40.0142 57.9255C39.8895 58.05 39.7649 58.1746 39.6405 58.2994C39.4675 58.4726 39.2941 58.6453 39.1207 58.818C39.0221 58.9165 38.9236 59.0149 38.822 59.1163C38.5957 59.3265 38.5957 59.3265 38.4691 59.3265C38.4691 54.1503 38.4691 48.9741 38.4691 43.641Z" fill="#008BD0"/>
<path d="M25.8148 25.5521C26.1779 25.8387 26.3006 25.997 26.4475 26.4376C26.4595 26.6224 26.4646 26.8077 26.4653 26.9928C26.4664 27.1631 26.4664 27.1631 26.4675 27.3367C26.4676 27.4609 26.4678 27.5851 26.4679 27.7131C26.4685 27.8442 26.4692 27.9752 26.4698 28.1103C26.4717 28.5446 26.4725 28.9789 26.4732 29.4132C26.474 29.7146 26.4747 30.016 26.4754 30.3174C26.4768 30.9497 26.4775 31.582 26.4779 32.2143C26.4786 33.0249 26.4817 33.8355 26.4853 34.6461C26.4876 35.2688 26.4883 35.8914 26.4885 36.5141C26.4889 36.813 26.4899 37.1119 26.4915 37.4107C26.4937 37.8286 26.4935 38.2465 26.4926 38.6644C26.4938 38.7881 26.495 38.9118 26.4962 39.0392C26.4913 39.8308 26.3904 40.2827 25.8148 40.8581C25.5588 40.9006 25.5588 40.9006 25.2612 40.9055C25.1636 40.9091 25.0661 40.9127 24.9656 40.9164C24.5378 40.8303 24.4256 40.7102 24.1698 40.3521C24.0925 39.8991 24.102 39.4492 24.1063 38.9906C24.1056 38.8519 24.1049 38.7132 24.1042 38.5703C24.1026 38.1114 24.1047 37.6526 24.107 37.1937C24.107 36.8751 24.1068 36.5566 24.1064 36.2381C24.1062 35.5703 24.1078 34.9025 24.1107 34.2347C24.1141 33.463 24.1143 32.6913 24.1128 31.9195C24.1115 31.1767 24.1122 30.4339 24.114 29.6911C24.1146 29.3752 24.1146 29.0593 24.1141 28.7433C24.1138 28.3021 24.1159 27.8609 24.1186 27.4197C24.1181 27.2886 24.1175 27.1576 24.1169 27.0226C24.1181 26.9023 24.1194 26.7821 24.1207 26.6582C24.121 26.5539 24.1213 26.4496 24.1216 26.3422C24.1819 25.9862 24.3032 25.8134 24.5494 25.5521C25.031 25.3917 25.322 25.4398 25.8148 25.5521Z" fill="#008CD1"/>
<path d="M26.4475 5.8188C26.9159 7.41173 27.3517 9.0049 27.713 10.6256C27.2835 10.7712 26.8537 10.9159 26.4238 11.0605C26.3024 11.1016 26.1809 11.1428 26.0558 11.1852C25.879 11.2445 25.879 11.2445 25.6987 11.3051C25.5907 11.3415 25.4826 11.3779 25.3713 11.4155C25.0571 11.5107 24.7457 11.5787 24.4229 11.6376C24.1664 11.0532 23.9118 10.4679 23.659 9.88192C23.5727 9.68269 23.4859 9.48368 23.3986 9.2849C23.2732 8.9991 23.1496 8.71256 23.0264 8.4258C22.987 8.3371 22.9476 8.2484 22.907 8.15702C22.7632 7.81843 22.6493 7.53596 22.6594 7.16473C22.8234 6.8773 22.9744 6.83103 23.285 6.72305C23.389 6.68587 23.4931 6.64869 23.6003 6.61039C23.7099 6.57354 23.8196 6.53668 23.9325 6.49872C24.0392 6.46089 24.1459 6.42306 24.2558 6.38408C25.8672 5.8188 25.8672 5.8188 26.4475 5.8188Z" fill="#008CD1"/>
<path d="M45.429 7.46324C46.6674 8.02197 47.8514 8.58632 48.9722 9.36068C48.5995 10.1399 48.173 10.8635 47.7068 11.5902C47.6409 11.6939 47.575 11.7976 47.5071 11.9044C47.1582 12.4523 46.8042 12.9962 46.4414 13.535C46.026 13.4512 45.7014 13.2977 45.3321 13.0918C45.2196 13.0294 45.107 12.9671 44.9911 12.9028C44.8746 12.8375 44.7581 12.7722 44.6381 12.7049C44.5197 12.6391 44.4013 12.5733 44.2793 12.5055C43.9873 12.3432 43.6957 12.1804 43.4043 12.0171C43.582 11.4553 43.7965 10.9234 44.0375 10.386C44.0734 10.3059 44.1092 10.2259 44.1462 10.1434C44.2214 9.9757 44.2968 9.80806 44.3724 9.64051C44.4884 9.38315 44.6037 9.12549 44.7189 8.86779C44.7923 8.70446 44.8657 8.54115 44.9392 8.37787C45.0058 8.22967 45.0724 8.08148 45.1411 7.9288C45.3025 7.58974 45.3025 7.58974 45.429 7.46324Z" fill="#008CD1"/>
<path d="M13.1605 13.788C13.6187 14.1713 14.0626 14.5556 14.4813 14.9818C14.8699 15.3773 15.2798 15.7398 15.6998 16.1015C16.0505 16.4118 16.3767 16.7419 16.7037 17.0769C16.5357 17.5662 16.3301 17.8798 15.9761 18.2549C15.5058 18.7662 15.0867 19.2983 14.679 19.8598C13.8923 19.3436 13.1228 18.808 12.3617 18.2549C12.2128 18.1472 12.2128 18.1472 12.0609 18.0373C11.6235 17.7204 11.1877 17.4018 10.7562 17.0769C10.9369 15.8856 12.3756 14.6265 13.1605 13.788Z" fill="#DD9134"/>
<path d="M37.963 5.18633C40.7721 5.51516 40.7721 5.51516 41.8858 6.0718C41.7056 7.11334 41.4171 8.11285 41.1107 9.1235C41.0636 9.2807 41.0164 9.43789 40.9679 9.59984C40.8526 9.9841 40.7367 10.3682 40.6204 10.7521C39.8489 10.6673 39.1007 10.5295 38.3426 10.3647C38.2325 10.3412 38.1224 10.3176 38.0089 10.2933C37.7404 10.2358 37.4721 10.1778 37.2037 10.1197C37.291 9.47801 37.3788 8.83642 37.4671 8.19489C37.497 7.97663 37.5269 7.75835 37.5565 7.54005C37.5992 7.22633 37.6424 6.91267 37.6857 6.59903C37.6988 6.50137 37.712 6.40372 37.7256 6.30311C37.7795 5.91538 37.8388 5.55864 37.963 5.18633Z" fill="#008CD1"/>
<path d="M34.1667 4.80683C34.1667 6.43483 34.1667 8.06283 34.1667 9.74016C33.0392 9.82365 31.9117 9.90714 30.75 9.99315C30.4936 8.35065 30.2764 6.7144 30.1173 5.05982C30.6472 4.93812 31.1735 4.89385 31.7149 4.86217C31.964 4.84627 31.964 4.84627 32.2181 4.83005C32.8671 4.80297 33.5171 4.80683 34.1667 4.80683Z" fill="#008CD1"/>
<path d="M51.7562 11.7641C52.2695 11.8319 52.5073 12.0882 52.8654 12.4475C52.978 12.5601 53.0905 12.6727 53.2065 12.7887C53.3229 12.9071 53.4394 13.0256 53.5594 13.1476C53.679 13.2669 53.7986 13.3861 53.9183 13.5051C54.7932 14.3868 54.7932 14.3868 54.7932 14.6735C54.6296 14.8385 54.6296 14.8385 54.3898 15.0372C53.8979 15.4546 53.4227 15.8865 52.9504 16.3259C52.3939 16.8422 51.8324 17.3485 51.25 17.8359C50.7748 17.6435 50.5204 17.3604 50.1902 16.9741C49.7685 16.4927 49.3523 16.0751 48.8457 15.6855C48.9087 15.1411 49.2565 14.8062 49.6049 14.4126C49.7314 14.2666 49.8578 14.1205 49.9841 13.9743C50.0795 13.8645 50.0795 13.8645 50.1768 13.7525C50.4581 13.426 50.7317 13.0937 51.0048 12.7603C51.095 12.6503 51.1852 12.5404 51.2782 12.4272C51.5168 12.1342 51.5168 12.1342 51.7562 11.7641Z" fill="#008CD1"/>
<path d="M56.8179 17.5829C57.304 17.7687 57.4598 18.0031 57.7012 18.456C57.7675 18.579 57.8339 18.7021 57.9022 18.8288C57.9698 18.9577 58.0374 19.0866 58.1071 19.2194C58.1761 19.3479 58.2452 19.4763 58.3164 19.6086C58.8201 20.5513 58.8201 20.5513 58.9691 20.9983C56.6955 22.2032 56.6955 22.2032 55.5525 22.785C55.4141 22.8558 55.2758 22.9266 55.1333 22.9995C54.7932 23.1487 54.7932 23.1487 54.4136 23.1487C54.2044 22.7592 53.9965 22.369 53.7888 21.9786C53.6998 21.813 53.6998 21.813 53.6091 21.6441C53.5524 21.5373 53.4957 21.4305 53.4373 21.3205C53.385 21.2224 53.3326 21.1244 53.2787 21.0234C53.1558 20.7617 53.0804 20.5215 53.0216 20.2393C54.264 19.321 55.5323 18.4396 56.8179 17.5829Z" fill="#008CD1"/>
<path d="M6.20061 27.4496C7.31873 27.622 8.41931 27.8477 9.52237 28.0979C10.321 28.2779 10.321 28.2779 11.1358 28.4616C11.0105 29.5469 10.8852 30.6322 10.7562 31.7504C9.0986 31.6842 7.46655 31.5778 5.82098 31.371C5.87752 30.0458 5.97025 28.7573 6.20061 27.4496Z" fill="#DD9134"/>
<path d="M12.2747 40.8581C12.4626 41.2689 12.6495 41.6801 12.8362 42.0915C12.8895 42.2079 12.9427 42.3243 12.9976 42.4443C13.0486 42.5568 13.0996 42.6693 13.1521 42.7852C13.1991 42.8885 13.2462 42.9919 13.2947 43.0984C13.4032 43.3628 13.4793 43.6152 13.5401 43.894C12.9737 44.1865 12.4063 44.477 11.8378 44.7657C11.6446 44.8642 11.4517 44.9632 11.259 45.0628C10.982 45.2058 10.7041 45.3469 10.426 45.4876C10.34 45.5325 10.254 45.5774 10.1655 45.6237C9.83779 45.7876 9.57004 45.9182 9.19931 45.917C8.89412 45.7386 8.81202 45.5433 8.66277 45.2247C8.60788 45.1087 8.55299 44.9927 8.49644 44.8731C8.41312 44.6898 8.41312 44.6898 8.32812 44.5028C8.27111 44.383 8.2141 44.2632 8.15536 44.1398C7.87833 43.5449 7.68207 43.0307 7.59259 42.3761C8.21855 42.1594 8.84467 41.9432 9.47097 41.7275C9.6841 41.6541 9.89719 41.5804 10.1102 41.5067C10.416 41.4008 10.722 41.2954 11.028 41.1902C11.1236 41.157 11.2192 41.1238 11.3177 41.0896C11.9928 40.8581 11.9928 40.8581 12.2747 40.8581Z" fill="#DD9134"/>
<path d="M19.2346 50.7248C19.6531 50.8046 19.9371 50.9574 20.2884 51.1957C20.3896 51.2638 20.4907 51.3318 20.5949 51.402C20.6993 51.4733 20.8037 51.5447 20.9113 51.6182C21.0708 51.7259 21.0708 51.7259 21.2335 51.8358C21.4957 52.013 21.7573 52.1908 22.0185 52.3692C21.8593 52.7932 21.6786 53.1675 21.4352 53.5492C21.3388 53.7011 21.3388 53.7011 21.2405 53.8561C21.1736 53.9603 21.1067 54.0644 21.0378 54.1718C20.9404 54.3252 20.9404 54.3252 20.8411 54.4816C20.3992 55.1752 19.9465 55.8611 19.4876 56.5436C19.0217 56.4738 18.718 56.36 18.3359 56.086C18.2426 56.0197 18.1493 55.9533 18.0532 55.8849C17.9576 55.8153 17.862 55.7457 17.7635 55.6739C17.6186 55.571 17.6186 55.571 17.4709 55.4659C17.0598 55.1711 16.6743 54.8863 16.3241 54.5197C16.4965 54.0089 16.7215 53.6919 17.0912 53.3021C17.8521 52.4814 18.5688 51.6247 19.2346 50.7248Z" fill="#A6C45A"/>
<path d="M30.3704 55.4051C30.7316 55.4231 31.0927 55.4416 31.4539 55.4605C31.5551 55.4654 31.6563 55.4704 31.7606 55.4755C31.8605 55.4808 31.9604 55.4861 32.0634 55.4916C32.1996 55.4985 32.1996 55.4985 32.3385 55.5056C32.7397 55.5393 33.1358 55.5986 33.534 55.6581C33.5371 56.3404 33.5394 57.0226 33.5409 57.7049C33.5415 57.9371 33.5424 58.1694 33.5435 58.4017C33.545 58.7348 33.5458 59.068 33.5463 59.4011C33.547 59.5056 33.5476 59.6101 33.5483 59.7177C33.5483 59.9669 33.5418 60.216 33.534 60.4649C33.4074 60.5914 33.4074 60.5914 33.1652 60.5962C33.0088 60.5885 33.0088 60.5885 32.8493 60.5806C32.7344 60.575 32.6195 60.5695 32.5011 60.5638C32.38 60.5573 32.2589 60.5507 32.1341 60.544C32.0164 60.5385 31.8987 60.5329 31.7774 60.5272C31.0919 60.4925 30.4176 60.4329 29.7377 60.3385C29.7245 59.6624 29.7644 59.0394 29.8761 58.3699C29.8901 58.2843 29.9042 58.1987 29.9186 58.1104C29.963 57.841 30.0085 57.5718 30.054 57.3026C30.0846 57.1183 30.1151 56.934 30.1455 56.7496C30.2196 56.3013 30.2947 55.8532 30.3704 55.4051Z" fill="#A6C45A"/>
<path d="M112.497 25.4256C113.489 26.0929 114.238 26.9423 115.028 27.829C114.891 28.2401 114.812 28.314 114.49 28.5801C114.143 28.8726 113.804 29.1702 113.474 29.4804C113.365 29.5822 113.365 29.5822 113.254 29.686C113.11 29.8219 112.966 29.9581 112.822 30.0948C112.477 30.4179 112.166 30.6671 111.738 30.8649C111.416 30.5618 111.098 30.2552 110.781 29.9479C110.689 29.8616 110.597 29.7753 110.503 29.6865C110.417 29.6025 110.331 29.5185 110.242 29.432C110.162 29.3551 110.082 29.2783 109.999 29.1991C109.839 28.9675 109.839 28.9675 109.858 28.71C110.042 28.2858 110.365 27.9645 110.67 27.6235C110.808 27.4662 110.946 27.3087 111.084 27.1511C111.152 27.0736 111.22 26.996 111.29 26.9162C111.708 26.4322 112.102 25.929 112.497 25.4256Z" fill="black"/>
<path d="M26.0363 18.9981C26.7893 19.6044 26.7893 19.6044 26.8717 20.1598C26.8921 20.7845 26.8765 21.2693 26.4475 21.7573C25.969 22.1776 25.4829 22.2156 24.8672 22.199C24.3387 22.0955 23.994 21.7929 23.6636 21.3778C23.4594 20.7653 23.4312 20.213 23.7031 19.6305C24.3098 18.8444 25.0904 18.5898 26.0363 18.9981Z" fill="#008CD1"/>
</svg>
