<?xml version="1.0" encoding="UTF-8"?>
<svg id="Layer_1" xmlns="http://www.w3.org/2000/svg" version="1.1" viewBox="0 0 24 24">
  <!-- Generator: Adobe Illustrator 29.8.7, SVG Export Plug-In . SVG Version: 2.1.1 Build 1)  -->
  <defs>
    <style>
      .st0 {
        fill: #59c626;
      }
    </style>
  </defs>
  <path class="st0" d="M9,5c0-1.66,1.34-3,3-3s3,1.34,3,3-1.34,3-3,3-3-1.34-3-3ZM19,6c1.66,0,3-1.34,3-3s-1.34-3-3-3-3,1.34-3,3,1.34,3,3,3ZM5,6c1.66,0,3-1.34,3-3S6.66,0,5,0s-3,1.34-3,3,1.34,3,3,3ZM17,13.5v2c0,1.33-.59,2.51-1.5,3.33v3.67c0,.83-.67,1.5-1.5,1.5s-1.5-.67-1.5-1.5v-2.5h-1v2.5c0,.83-.67,1.5-1.5,1.5s-1.5-.67-1.5-1.5v-3.67c-.91-.82-1.5-2-1.5-3.33v-2c0-2.48,2.02-4.5,4.5-4.5h1c2.48,0,4.5,2.02,4.5,4.5ZM14,13.5c0-.83-.67-1.5-1.5-1.5h-1c-.83,0-1.5.67-1.5,1.5v2c0,.83.67,1.5,1.5,1.5h1c.83,0,1.5-.67,1.5-1.5v-2ZM19.5,7h-1c-.83,0-1.5.67-1.5,1.5s.67,1.5,1.5,1.5h1c.83,0,1.5.67,1.5,1.5v2c0,.64-.4,1.2-1,1.41-.6.21-1,.78-1,1.41v4.17c0,.83.67,1.5,1.5,1.5s1.5-.67,1.5-1.5v-3.26c1.23-.82,2-2.22,2-3.74v-2c0-2.48-2.02-4.5-4.5-4.5h0ZM5.5,7h-1c-2.48,0-4.5,2.02-4.5,4.5v2c0,1.52.77,2.92,2,3.74v3.26c0,.83.67,1.5,1.5,1.5s1.5-.67,1.5-1.5v-4.17c0-.64-.4-1.2-1-1.41-.6-.21-1-.78-1-1.41v-2c0-.83.67-1.5,1.5-1.5h1c.83,0,1.5-.67,1.5-1.5s-.67-1.5-1.5-1.5h0Z"/>
</svg>